<svg id="Capa_1" enable-background="new 0 0 512 512" height="512" viewBox="0 0 512 512" width="512" xmlns="http://www.w3.org/2000/svg"><g><g><path d="m426.378 193.699 77.258 87.671s-48.87 34.372-102.072 0h-291.128c-53.203 34.372-102.072 0-102.072 0l77.258-87.671" fill="#f1b986"/><path d="m410.138 253.557c0-85.474-69.572-154.699-155.177-154.135-85.327.562-153.444 69.444-153.098 154.773.111 27.328 7.336 52.975 19.918 75.19 10.884 19.218 17.365 40.638 18.055 62.713.891 28.513 12.215 56.76 33.979 78.524 45.167 45.167 119.204 45.167 164.371 0 21.766-21.766 33.09-50.016 33.979-78.531.677-21.732 6.716-42.981 17.555-61.83 12.988-22.588 20.418-48.777 20.418-76.704z" fill="#f1d0a5"/><path d="m256 504.5c-29.807 0-59.604-11.291-82.187-33.873-21.765-21.765-33.086-50.018-33.973-78.529-.698-22.074-7.175-43.49-18.058-62.714-12.587-22.213-19.812-47.865-19.921-75.19-.349-85.326 67.776-154.208 153.102-154.767h.588c-36.833.558-66.232 69.441-66.082 154.767.05 27.326 3.169 52.977 8.6 75.19 4.694 19.224 7.494 40.64 7.793 62.714.379 28.512 5.272 56.764 14.659 78.529 9.758 22.582 22.613 33.873 35.479 33.873z" fill="#f1b986"/><path d="m223.223 260.133c-12.926-1.206-23.838-8.461-30.196-18.716-9.916 7.116-22.951 9.597-35.457 5.581-13.035-4.186-22.433-14.46-26.041-26.678-12.527 4.534-27.026 2.701-38.258-6.139-12.915-10.155-17.859-26.678-13.882-41.607-16.932-4.554-29.428-19.981-29.488-38.357-.07-18.407 12.347-33.943 29.279-38.587-4.056-14.929.837-31.511 13.732-41.716 11.222-8.88 25.741-10.763 38.278-6.248 3.588-12.218 12.965-22.512 26.01-26.728 12.507-4.036 25.552-1.575 35.478 5.531 6.338-10.255 17.24-17.529 30.176-18.745 12.786-1.206 24.735 3.767 32.877 12.477 8.132-8.72 20.07-13.712 32.856-12.527 12.935 1.196 23.848 8.441 30.206 18.686 9.906-7.116 22.941-9.607 35.448-5.601 13.045 4.186 22.433 14.44 26.061 26.648 12.507-4.544 27.017-2.73 38.258 6.089 12.915 10.135 17.878 26.638 13.942 41.556 16.942 4.504 29.468 19.882 29.598 38.248v.328.279c0 18.386-12.457 33.873-29.388 38.477 4.016 14.919-.897 31.472-13.803 41.657-11.231 8.859-25.741 10.713-38.268 6.198-3.608 12.218-12.986 22.492-26.03 26.698-12.507 4.026-25.542 1.555-35.468-5.551-6.348 10.244-17.251 17.509-30.186 18.725-12.786 1.196-24.725-3.787-32.867-12.497-7.335 7.863-17.769 12.686-29.12 12.686-1.235.002-2.491-.058-3.747-.167z" fill="#f9f6f9"/><path d="m241.48 249.17c-4.435-5.172-7.684-11.47-9.487-18.317-4.385 1.774-9.009 2.681-13.643 2.681-8.63 0-17.31-3.119-24.615-9.557-10.005-8.81-15.217-21.895-15.217-35.119 0-3.857.438-7.713 1.335-11.49-8.471-2.551-15.825-8.142-21.067-15.666-5.252-7.534-8.391-17.001-8.421-27.296v-.169c0-20.549 12.397-37.859 29.279-43.052-.927-3.837-1.385-7.773-1.385-11.69 0-13.175 5.182-26.23 15.118-35.039 7.325-6.488 16.055-9.647 24.725-9.647 4.604 0 9.198.897 13.553 2.651 1.794-6.846 5.033-13.145 9.457-18.327 1.814-2.123 3.817-4.056 6.009-5.76-6.029-3.617-13.055-5.68-20.479-5.68-1.246 0-2.511.06-3.787.179-6.468.608-12.427 2.731-17.559 5.979-5.132 3.259-9.447 7.634-12.617 12.766-6.697-4.794-14.799-7.474-23.21-7.474-4.066 0-8.192.628-12.268 1.943-6.527 2.113-12.128 5.74-16.553 10.364s-7.664 10.254-9.457 16.363c-4.355-1.565-8.939-2.362-13.553-2.362-8.67 0-17.4 2.81-24.725 8.61-9.936 7.863-15.118 19.513-15.118 31.282 0 3.498.458 7.006 1.385 10.434-16.882 4.634-29.279 20.091-29.279 38.438v.149c.03 9.188 3.169 17.639 8.421 24.366 5.242 6.717 12.606 11.72 21.067 13.992-.897 3.369-1.335 6.817-1.335 10.255 0 11.809 5.212 23.489 15.217 31.352 7.305 5.75 15.985 8.531 24.605 8.531 4.644 0 9.268-.807 13.653-2.392 1.804 6.109 5.053 11.73 9.487 16.354 4.425 4.614 10.035 8.232 16.553 10.325 4.056 1.306 8.162 1.923 12.208 1.923 8.421 0 16.543-2.691 23.25-7.504 6.358 10.255 17.27 17.51 30.196 18.715 1.256.11 2.511.169 3.747.169 5.68 0 11.122-1.206 16.065-3.398 1.485-.658 2.93-1.405 4.325-2.242-2.143-1.674-4.106-3.567-5.88-5.64z" fill="#e2dfe2"/></g><g><path d="m193.4 304.242c0-18.663-10.159-33.846-22.647-33.846s-22.647 15.183-22.647 33.846 10.16 33.846 22.647 33.846 22.647-15.183 22.647-33.846z"/><path d="m363.895 304.242c0-18.663-10.16-33.846-22.647-33.846s-22.648 15.183-22.648 33.846 10.159 33.846 22.647 33.846 22.648-15.183 22.648-33.846z"/><path d="m509.263 276.41-69.904-79.319c1.447-4.579 2.221-9.406 2.221-14.361 0-1.825-.105-3.644-.314-5.448 7.183-3.168 13.57-8.127 18.409-14.374 6.493-8.368 9.925-18.395 9.925-28.998v-.659c-.069-10.595-3.563-20.591-10.101-28.902-4.875-6.208-11.281-11.123-18.469-14.247.192-1.733.29-3.478.29-5.222 0-6.809-1.503-13.674-4.346-19.854-1.731-3.763-6.185-5.412-9.948-3.679-3.763 1.731-5.41 6.185-3.679 9.948 1.945 4.228 2.973 8.925 2.973 13.585 0 2.779-.361 5.558-1.072 8.259-1.054 4 1.33 8.097 5.327 9.159 6.717 1.785 12.8 5.802 17.13 11.318 4.463 5.675 6.848 12.498 6.895 19.683v.61c0 7.242-2.343 14.09-6.779 19.806-4.296 5.544-10.36 9.602-17.077 11.426-3.995 1.084-6.355 5.201-5.274 9.197.736 2.722 1.11 5.545 1.11 8.391 0 9.979-4.489 19.246-12.313 25.42-5.777 4.553-12.706 6.96-20.038 6.96-3.782 0-7.5-.648-11.049-1.926-1.944-.699-4.09-.566-5.933.368s-3.218 2.587-3.802 4.569c-1.46 4.957-4.123 9.549-7.711 13.291-3.666 3.841-8.308 6.742-13.428 8.391-3.224 1.041-6.564 1.568-9.927 1.568-6.786 0-13.313-2.103-18.878-6.081-1.686-1.206-3.795-1.66-5.831-1.253-2.034.406-3.808 1.636-4.902 3.397-2.593 4.175-6.142 7.761-10.248 10.363-4.335 2.732-9.135 4.363-14.267 4.848-1.045.099-2.047.147-3.064.147-8.904 0-17.513-3.75-23.618-10.289-1.418-1.519-3.403-2.381-5.481-2.381-2.078 0-4.063.862-5.481 2.381-3.014 3.227-6.583 5.769-10.603 7.55-4.123 1.824-8.508 2.749-13.036 2.749-.983 0-2.025-.047-3.057-.138-10.17-.944-19.104-6.483-24.511-15.197-1.094-1.764-2.871-2.995-4.907-3.401-2.033-.404-4.148.05-5.835 1.26-5.563 3.988-12.095 6.096-18.89 6.096-3.347 0-6.68-.525-9.901-1.559-5.12-1.649-9.769-4.548-13.446-8.382-3.565-3.718-6.229-8.314-7.703-13.29-.586-1.979-1.963-3.63-3.806-4.562-1.843-.933-3.989-1.063-5.93-.362-3.578 1.291-7.314 1.945-11.105 1.945-7.315 0-14.22-2.394-19.975-6.926-7.852-6.172-12.355-15.449-12.355-25.454 0-2.824.366-5.625 1.086-8.325 1.068-4-1.306-8.108-5.305-9.179-6.708-1.798-12.781-5.833-17.102-11.363-4.444-5.689-6.806-12.524-6.83-19.743v-.15c0-14.537 9.772-27.37 23.764-31.207 3.986-1.093 6.336-5.207 5.255-9.196-.749-2.761-1.129-5.613-1.129-8.477 0-9.959 4.475-19.218 12.274-25.398 5.781-4.574 12.723-6.992 20.076-6.992 3.782 0 7.483.644 11.003 1.915 1.944.701 4.094.57 5.939-.366s3.221-2.592 3.804-4.577c1.452-4.949 4.11-9.545 7.682-13.287 3.745-3.914 8.264-6.742 13.44-8.409 3.232-1.045 6.583-1.576 9.961-1.576 6.783 0 13.299 2.099 18.844 6.068 1.689 1.21 3.806 1.663 5.841 1.255 2.037-.409 3.813-1.644 4.905-3.411 2.574-4.166 6.119-7.756 10.238-10.373 4.327-2.736 9.124-4.369 14.258-4.853 1.03-.098 2.064-.147 3.074-.147 8.91 0 17.519 3.747 23.618 10.279 1.418 1.519 3.404 2.381 5.482 2.381h.002c2.079 0 4.064-.864 5.482-2.385 6.118-6.555 14.744-10.315 23.669-10.315 1.064 0 2.043.044 3.017.138 5.14.477 9.939 2.101 14.264 4.827 4.129 2.603 7.675 6.179 10.253 10.343 1.094 1.768 2.874 3.002 4.913 3.408 2.038.405 4.154-.054 5.843-1.268 5.466-3.933 12.175-6.098 18.89-6.098 3.354 0 6.682.522 9.89 1.552 5.109 1.638 9.757 4.53 13.436 8.359 3.575 3.728 6.247 8.324 7.726 13.29.59 1.981 1.972 3.631 3.819 4.56s3.995 1.054 5.938.346c3.563-1.298 7.304-1.957 11.122-1.957 4.649 0 9.126.967 13.308 2.874 3.768 1.719 8.216.057 9.936-3.712 1.718-3.769.057-8.217-3.712-9.936-6.149-2.804-12.72-4.226-19.532-4.226-3.091 0-6.151.296-9.152.884-2.189-4.594-5.109-8.838-8.631-12.511-5.402-5.622-12.207-9.86-19.675-12.254-4.69-1.505-9.56-2.269-14.472-2.269-7.479 0-14.725 1.734-21.302 5.062-3.063-3.548-6.648-6.646-10.599-9.136-6.34-3.997-13.365-6.376-20.853-7.071-1.411-.136-2.9-.205-4.427-.205-10.583 0-20.875 3.605-29.154 10.067-9.421-7.337-21.405-10.964-33.579-9.813-7.504.707-14.524 3.099-20.879 7.117-3.942 2.505-7.518 5.61-10.571 9.158-6.563-3.306-13.783-5.028-21.227-5.028-4.948 0-9.853.775-14.569 2.301-7.459 2.402-14.261 6.66-19.676 12.32-3.518 3.686-6.428 7.936-8.603 12.529-2.945-.565-5.947-.851-8.982-.851-10.766 0-20.927 3.537-29.388 10.232-11.415 9.047-17.962 22.59-17.962 37.158 0 1.856.109 3.709.326 5.549-16.906 7.476-28.216 24.419-28.216 43.331v.175c.035 10.603 3.496 20.615 10.01 28.953 4.864 6.226 11.261 11.159 18.439 14.3-.199 1.766-.299 3.546-.299 5.332 0 4.89.752 9.656 2.16 14.18l-69.973 79.401c-1.409 1.599-2.071 3.723-1.821 5.839.25 2.117 1.39 4.027 3.133 5.253.512.36 12.762 8.877 31.683 13.581 8.182 2.034 16.368 3.044 24.471 3.044 13.622 0 27.001-2.859 39.69-8.511 3.515 13.074 8.663 25.637 15.361 37.458 10.542 18.615 16.452 39.107 17.09 59.256.487 15.741 3.898 31.004 10.138 45.367 1.228 2.826 3.986 4.513 6.883 4.513.998 0 2.011-.2 2.985-.623 3.799-1.65 5.541-6.068 3.89-9.868-5.479-12.611-8.475-26.02-8.903-39.859-.715-22.574-7.296-45.458-19.031-66.18-7.523-13.278-12.893-27.587-15.958-42.529-1.945-9.483-2.95-19.238-2.987-28.996-.035-8.184.608-16.365 1.908-24.411 2.172.302 4.378.463 6.612.463 3.066 0 6.106-.293 9.096-.875 2.186 4.606 5.103 8.856 8.621 12.525 5.393 5.624 12.196 9.869 19.682 12.28 4.712 1.512 9.587 2.279 14.492 2.279 7.458 0 14.694-1.73 21.273-5.05 7.946 9.268 19.091 15.078 31.522 16.231 1.504.132 2.985.199 4.404.199 6.631 0 13.058-1.356 19.109-4.033 3.602-1.597 6.953-3.607 10.02-6.008 8.267 6.439 18.534 10.031 29.091 10.031 1.472 0 2.979-.072 4.475-.213 7.389-.698 14.6-3.15 20.869-7.101 3.939-2.496 7.519-5.599 10.581-9.15 6.58 3.316 13.813 5.044 21.265 5.044 4.929 0 9.819-.771 14.529-2.292 7.487-2.411 14.291-6.668 19.665-12.298 3.526-3.678 6.446-7.93 8.628-12.531 2.965.572 5.982.86 9.028.86 2.184 0 4.341-.153 6.467-.442 1.289 7.865 1.943 15.871 1.943 23.892 0 9.936-1.008 19.889-2.998 29.587-3.119 15.247-8.645 29.84-16.424 43.374-11.416 19.851-17.829 42.443-18.545 65.333-.875 27.739-12.165 53.833-31.787 73.473-18.667 18.663-43.076 29.659-69.387 31.418v-31.461l30.013-30.013c2.929-2.929 2.929-7.678 0-10.606-2.929-2.929-7.678-2.929-10.606 0l-26.907 26.906-26.907-26.906c-2.929-2.929-7.678-2.929-10.606 0-2.929 2.929-2.929 7.678 0 10.606l30.013 30.013v31.464c-26.311-1.759-50.72-12.755-69.387-31.417-3.489-3.49-6.77-7.249-9.75-11.173-2.506-3.299-7.21-3.941-10.509-1.437-3.299 2.505-3.942 7.21-1.437 10.509 3.39 4.464 7.121 8.739 11.09 12.708 23.263 23.257 54.335 36.066 87.493 36.066s64.23-12.809 87.496-36.069c22.329-22.349 35.175-52.04 36.17-83.606.64-20.436 6.365-40.604 16.557-58.327 6.958-12.106 12.282-24.981 15.88-38.386 12.693 5.655 26.075 8.515 39.701 8.514 8.1 0 16.285-1.01 24.463-3.042 18.922-4.702 31.172-13.22 31.684-13.58 1.744-1.226 2.883-3.137 3.133-5.253.25-2.118-.412-4.241-1.821-5.841zm-412.64 4.169c-17.922 8.805-36.979 10.866-56.732 6.082-8.246-1.998-15.068-4.868-19.82-7.232l60.004-68.089c2.435 3.221 5.289 6.165 8.554 8.732 2.581 2.033 5.323 3.769 8.191 5.203-1.666 9.527-2.502 19.234-2.46 28.944.034 8.84.802 17.68 2.263 26.36zm375.485 6.08c-19.753 4.783-38.813 2.719-56.74-6.089 1.501-8.904 2.272-17.963 2.272-27.01 0-9.51-.846-19.003-2.491-28.309 2.945-1.458 5.759-3.237 8.407-5.324 3.196-2.522 5.996-5.406 8.394-8.556l59.979 68.057c-4.754 2.365-11.576 5.235-19.821 7.231z"/></g></g></svg>